<svg width="17" height="20" viewBox="0 0 17 20" fill="none" xmlns="http://www.w3.org/2000/svg">
<g clip-path="url(#clip0_388_1213)">
<path d="M6.85182 0.0375125C8.37444 -0.049851 9.99067 0.025032 11.4821 0.299603C13.0671 0.586654 16.0812 1.41037 16.2247 3.35733L16.2122 16.83C16.0562 17.7598 15.245 18.3589 14.4649 18.7645C11.2886 20.4119 4.92359 20.4119 1.7473 18.7645C0.923586 18.3339 0.0312306 17.6662 -0.0124512 16.6553V3.35109C0.187237 0.886186 4.93607 0.143597 6.85182 0.0375125ZM7.35104 1.28556C5.86586 1.34797 2.47117 1.77854 1.49769 2.98291C1.08583 3.48837 1.2668 3.75046 1.7161 4.13736C3.99379 6.11552 12.0999 6.06559 14.4462 4.19976C15.1701 3.61942 15.1014 3.1826 14.3776 2.65218C12.7988 1.49149 9.27304 1.20444 7.35728 1.28556H7.35104ZM14.9766 5.38541C14.5336 5.60382 14.103 5.8347 13.635 6.00943C10.3963 7.23252 5.37912 7.2138 2.18412 5.84718C1.85962 5.7099 1.56633 5.51645 1.24808 5.37917V7.90647C1.24808 8.10616 1.81594 8.59289 2.00315 8.71146C4.61781 10.4026 11.6069 10.4026 14.2216 8.71146C14.4025 8.59289 14.9766 8.10616 14.9766 7.90647V5.37917V5.38541ZM14.9766 9.75358C14.5336 9.97199 14.103 10.2029 13.635 10.3776C10.3963 11.6007 5.37912 11.582 2.18412 10.2154C1.85962 10.0781 1.56633 9.88463 1.24808 9.74734V12.2746C1.24808 12.4743 1.81594 12.9611 2.00315 13.0796C4.61781 14.7707 11.6069 14.7707 14.2216 13.0796C14.4025 12.9611 14.9766 12.4743 14.9766 12.2746V9.74734V9.75358ZM14.9766 14.1218C14.5336 14.3402 14.103 14.5711 13.635 14.7458C10.3963 15.9689 5.37912 15.9501 2.18412 14.5835C1.85962 14.4462 1.56633 14.2528 1.24808 14.1155V16.6428C1.24808 16.8425 1.81594 17.3292 2.00315 17.4478C4.61781 19.1389 11.6069 19.1389 14.2216 17.4478C14.4025 17.3292 14.9766 16.8425 14.9766 16.6428V14.1155V14.1218Z" fill="#557981" fill-opacity="0.8"/>
</g>
<defs>
<clipPath id="clip0_388_1213">
<rect width="16.2309" height="20" fill="white"/>
</clipPath>
</defs>
</svg>
