<svg width="19" height="20" viewBox="0 0 19 20" fill="none" xmlns="http://www.w3.org/2000/svg">
<g clip-path="url(#clip0_152_2309)">
<path d="M10.7358 0L15.8042 5.01732C16.0102 5.19307 15.9306 5.32641 15.9306 5.49784V9.26407H17.7921C18.2847 9.26407 18.747 9.96623 18.7921 10.4286C18.9583 12.1455 18.6639 14.1351 18.7825 15.8823C18.7912 16.1861 18.2102 16.7965 17.9652 16.7965H16.0605C15.9747 16.8511 15.9488 16.916 15.9306 17.013C15.7505 17.9991 16.4258 19.5169 15.2379 20H0.779069C0.451796 19.8208 0.106341 19.5983 0.0846963 19.1792L0.0829647 0.904762C0.0613196 0.445022 0.419761 0.192208 0.779069 0H10.7358ZM9.95656 1.21212H1.29855V18.7879H14.7185V16.7965H3.76608C3.46219 16.7965 2.99379 16.019 2.95136 15.7065C2.844 14.9178 2.84054 10.826 3.02582 10.1688C3.13664 9.77489 3.61543 9.26407 4.02582 9.26407H14.7185V6.06061H11.0388C10.9505 6.06061 10.3947 5.75238 10.3098 5.66407C10.2475 5.6 9.95656 5.09957 9.95656 5.06494V1.21212ZM14.4587 5.02165L10.9955 1.47186V4.54545C10.9955 4.66926 11.2501 5.02165 11.3851 5.02165H14.4587ZM6.06045 11.0823H4.84833V15.0649H7.96522V14.1126H6.06045V11.0823ZM9.58773 11.103C8.31154 11.3169 7.89249 12.9091 8.30721 13.987C8.93145 15.6078 11.812 15.5126 12.1695 13.7714C12.5592 11.8762 11.4812 10.7861 9.58773 11.103ZM16.6232 14.5455V12.8139H14.7185L14.7566 13.5983L15.5851 13.6797C15.7306 14.2147 14.8977 14.2563 14.5072 14.1931C13.6059 14.0476 13.6553 12.0926 14.5072 11.9524C15.2968 11.8216 15.2985 12.3619 15.5392 12.3836L16.5366 12.2069C16.4743 11.0338 15.0769 10.9654 14.1626 11.0892C12.3107 11.3411 12.0838 14.3697 13.8033 14.9827C14.8094 15.3411 15.7392 15.0502 16.6224 14.5446L16.6232 14.5455Z" fill="#557981" fill-opacity="0.8"/>
<path d="M0.779221 0C0.419913 0.192208 0.0614719 0.445022 0.0822511 0.904762L0.0839827 19.1792C0.105628 19.5983 0.451082 19.8199 0.778355 20H0V0H0.779221Z" fill="white"/>
<path d="M9.63484 14.0026C9.19069 13.5593 9.26082 11.8433 10.3076 11.987C11.0357 12.0875 11.0738 12.8563 10.9872 13.4563C10.8885 14.1394 10.1102 14.4771 9.63398 14.0026H9.63484Z" fill="#557981" fill-opacity="0.8"/>
</g>
<defs>
<clipPath id="clip0_152_2309">
<rect width="18.8442" height="20" fill="white"/>
</clipPath>
</defs>
</svg>
