<?xml version="1.0" encoding="UTF-8"?>
<svg id="_レイヤー_1" data-name="レイヤー_1" xmlns="http://www.w3.org/2000/svg" version="1.1" viewBox="0 0 120 106">
  <!-- Generator: Adobe Illustrator 29.1.0, SVG Export Plug-In . SVG Version: 2.1.0 Build 142)  -->
  <defs>
    <style>
      .st0 {
        fill: #557981;
      }

      .st1 {
        stroke-width: .5px;
      }

      .st1, .st2 {
        stroke-miterlimit: 10;
      }

      .st1, .st3 {
        fill: #425d60;
        stroke: #425d60;
      }

      .st2 {
        fill: #46aca7;
        stroke: #46aca7;
      }
    </style>
  </defs>
  <path class="st2" d="M46.4.6C21.1.6.6,21.1.6,46.4s20.5,45.8,45.8,45.8,45.8-20.5,45.8-45.8S71.6.6,46.4.6ZM46.4,89.5c-23.8,0-43.2-19.4-43.2-43.2S22.6,3.2,46.4,3.2s43.2,19.4,43.2,43.2-19.4,43.2-43.2,43.2Z"/>
  <path class="st3" d="M10.5,42.5h0s0,0,0,0c3.6,5.2,9.1,9.8,15.7,10.3,6.5.8,13-1.2,17.9-5.4.5-.4,1-.5,1.4-.4.4,0,.9.3,1.2.7.3.4.5.8.5,1.3,0,.4-.2.9-.7,1.3-10,8.1-26.2,7.9-34.5-2.3h0s0,0,0,0c-1.2-1.3-2.3-2.7-3.2-4.3h0c-.3-.5-.2-1.1.3-1.4h0c.5-.3,1.1-.2,1.5.3Z"/>
  <path class="st1" d="M43.1,37.5c1.8,0,3.2-1.4,3.2-3.2s-1.4-3.2-3.2-3.2-3.2,1.4-3.2,3.2,1.4,3.2,3.2,3.2Z"/>
  <path class="st1" d="M16.2,34.2c1.8,0,3.2-1.4,3.2-3.2s-1.4-3.2-3.2-3.2-3.2,1.4-3.2,3.2,1.4,3.2,3.2,3.2Z"/>
  <path class="st0" d="M33.3,103.6c.6-11.7,6.8-22.5,15.4-30.3,9.2-8.3,21-13.2,33-16,6.5-1.5,13.1-2.4,19.8-2,5.1.3,12.9.8,14.1,7.1,1.1,5.8-4.6,9.1-9.4,10.4-5.9,1.5-12.5,1.7-18.4.1-5.9-1.5-11.2-5.7-12.5-12-1.4-7.1,2.7-14.6,6.7-20.1.7-1,.2-2.4-.8-3-1.1-.7-2.3-.2-3,.8-4.3,5.9-8.1,13.4-7.5,20.9.5,6.8,4.6,12.5,10.5,15.6,6.4,3.3,14.1,3.8,21.1,2.9,6-.8,12.6-2.7,16-8.1,3.7-5.9,1-13.8-5.2-16.6-3.1-1.4-6.6-1.8-10.1-2.1-4-.3-8-.2-11.9.2-14.1,1.5-28.6,6.2-40.2,14.6-12.2,8.9-21.3,22.4-22.1,37.8-.2,2.8,4.2,2.8,4.4,0h0Z"/>
</svg>