<?xml version="1.0" encoding="UTF-8"?>
<svg id="_レイヤー_1" data-name="レイヤー_1" xmlns="http://www.w3.org/2000/svg" xmlns:xlink="http://www.w3.org/1999/xlink" version="1.1" viewBox="0 0 100 80">
  <!-- Generator: Adobe Illustrator 29.1.0, SVG Export Plug-In . SVG Version: 2.1.0 Build 142)  -->
  <defs>
    <style>
      .st0 {
        fill: #557981;
      }

      .st1 {
        stroke-width: .3px;
      }

      .st1, .st2 {
        fill: #425d60;
        stroke: #425d60;
      }

      .st1, .st3 {
        stroke-miterlimit: 10;
      }

      .st2, .st3 {
        stroke-width: .6px;
      }

      .st3 {
        fill: #46aca7;
        stroke: #46aca7;
      }
    </style>
  </defs>
  <image width="242" height="120" transform="translate(-445.1 -220.6) scale(.8)" xlink:href="../../../Applications/MAMP/htdocs/eco/img/logo.jpg"/>
  <g>
    <g>
      <path class="st3" d="M47.2,1c-14.6,0-26.5,11.9-26.5,26.5s11.9,26.5,26.5,26.5,26.5-11.9,26.5-26.5S61.9,1,47.2,1ZM47.2,52.5c-13.8,0-25-11.2-25-25S33.4,2.5,47.2,2.5s25,11.2,25,25-11.2,25-25,25Z"/>
      <path class="st2" d="M47.4,28.2c-.2-.2-.4-.4-.7-.4-.2,0-.5,0-.8.3-2.9,2.4-6.6,3.6-10.4,3.1-3.9-.2-7-2.9-9.1-5.9h0s0,0,0,0c-.2-.3-.6-.4-.8-.2h0s0,0,0,0c-.3.2-.4.6-.2.8h0c.6.9,1.2,1.7,1.9,2.5h0s0,0,0,0c4.8,5.9,14.2,6,20,1.3.3-.2.4-.5.4-.8,0-.3,0-.5-.3-.7Z"/>
      <path class="st1" d="M45.4,18.6c-1,0-1.9.8-1.9,1.9s.8,1.9,1.9,1.9,1.9-.8,1.9-1.9-.8-1.9-1.9-1.9Z"/>
      <path class="st1" d="M29.8,16.7c-1,0-1.9.8-1.9,1.9s.8,1.9,1.9,1.9,1.9-.8,1.9-1.9-.8-1.9-1.9-1.9Z"/>
      <path class="st0" d="M85.9,31.4c-1.8-.8-3.8-1.1-5.8-1.2-2.3-.2-4.6-.1-6.9.1-3.1.3-6.2.9-9.2,1.8.6-2.9,2.2-5.7,3.8-7.9.4-.6,0-1.4-.5-1.7-.6-.4-1.3,0-1.7.5-2.1,2.9-4,6.4-4.3,10-4.1,1.4-8,3.3-11.4,5.8-7.1,5.1-12.3,13-12.8,21.9,0,1.6,2.4,1.6,2.5,0h0c.4-6.8,4-13,8.9-17.6,3.7-3.4,8.1-5.7,12.8-7.4.5,3.6,2.8,6.7,6,8.4,3.7,1.9,8.1,2.2,12.2,1.7,3.5-.5,7.3-1.5,9.3-4.7,2.2-3.4.6-8-3-9.6ZM81.8,42.7c-3.4.9-7.2,1-10.6,0-3.4-.9-6.5-3.3-7.3-7,0-.3-.1-.7-.1-1,1.3-.4,2.6-.7,3.9-1,3.8-.9,7.6-1.4,11.5-1.2,2.9.2,7.5.5,8.1,4.1.6,3.4-2.7,5.3-5.4,6Z"/>
    </g>
    <g>
      <path class="st0" d="M14.2,64.5v2.3h-6.2v3.6h5.8v2.3h-5.8v3.8h6.3v2.3H5.3v-14.3h8.9Z"/>
      <path class="st0" d="M21.6,79c-3.1,0-5.6-2.1-5.6-5.4s2.2-5.3,5.5-5.3,2.4.3,3.4,1v2.6c-.8-.9-2-1.5-3.2-1.5-2,0-3.1,1.4-3.1,3.3s1.2,3.2,3.2,3.2,2.4-.5,3.2-1.5v2.6c-1,.7-2.1,1-3.4,1Z"/>
      <path class="st0" d="M37,73.7c0,3.1-2.1,5.4-5.3,5.4s-5.3-2.2-5.3-5.4,2.1-5.4,5.3-5.4,5.3,2.2,5.3,5.4ZM28.9,73.7c0,2,1.1,3.3,2.8,3.3s2.8-1.3,2.8-3.3-1.1-3.3-2.8-3.3-2.8,1.3-2.8,3.3Z"/>
      <path class="st0" d="M43.5,78.8v-14.3h5.4c3.1,0,5.1,1.8,5.1,4.5s-1.9,4.6-5,4.6h-2.8v5.2h-2.7ZM46.1,66.7v4.6h2.7c1.6,0,2.5-1,2.5-2.3s-1-2.3-2.5-2.3h-2.7Z"/>
      <path class="st0" d="M65.3,73c0,.4,0,.7-.1,1.3h-7.4c.2,1.8,1.5,2.8,3.4,2.8s2.7-.5,3.5-1.4v2.3c-1,.7-2.3,1-3.7,1-3.4,0-5.6-2.1-5.6-5.3s1.8-5.4,5.2-5.4,4.8,2,4.8,4.8ZM60.6,70.1c-1.6,0-2.7,1.1-2.8,2.6h5.2c.1-1.5-.9-2.6-2.4-2.6Z"/>
      <path class="st0" d="M67.4,71.6c0-.9,0-2-.2-3.1h2.5v2.3h.2c.4-1.7,1.6-2.5,2.9-2.5s1,.1,1.4.3v2.5c-.6-.4-1.1-.6-1.7-.6-1.6,0-2.6,1.2-2.6,3.4v1.8c0,1.2,0,2.1.2,3.1h-2.7v-7.2Z"/>
      <path class="st0" d="M78.5,73.6h-.2v2.1c0,1.1,0,2.2.2,3.1h-2.7v-10.3c0-1.4,0-2.8-.2-4h2.7v8.6h.2l3.8-4.6h2.9l-4,4.8,4.8,5.5h-3l-4.4-5.3Z"/>
      <path class="st0" d="M90.6,74.6c-2.2-.2-3.5-1.3-3.5-3.1s1.5-3.2,3.8-3.2,2.2.3,3.1.9v2.3c-.9-.8-1.9-1.2-3-1.2s-1.6.4-1.6,1.2.6,1.1,1.8,1.2c2.2.2,3.5,1.3,3.5,3.1s-1.6,3.3-3.9,3.3-2.6-.4-3.6-1.1v-2.4c.9.9,2.2,1.5,3.5,1.5s1.7-.4,1.7-1.3-.5-1.1-1.8-1.2Z"/>
    </g>
  </g>
</svg>