<?xml version="1.0" encoding="UTF-8"?>
<svg id="_レイヤー_1" data-name="レイヤー_1" xmlns="http://www.w3.org/2000/svg" xmlns:xlink="http://www.w3.org/1999/xlink" version="1.1" viewBox="0 0 210 65">
  <!-- Generator: Adobe Illustrator 29.1.0, SVG Export Plug-In . SVG Version: 2.1.0 Build 142)  -->
  <defs>
    <style>
      .st0 {
        fill: #557981;
      }

      .st1 {
        stroke-width: .3px;
      }

      .st1, .st2 {
        fill: #425d60;
        stroke: #425d60;
      }

      .st1, .st3 {
        stroke-miterlimit: 10;
      }

      .st2, .st3 {
        stroke-width: .6px;
      }

      .st3 {
        fill: #46aca7;
        stroke: #46aca7;
      }
    </style>
  </defs>
  <image width="242" height="120" transform="translate(-390.1 -228.1) scale(.8)" xlink:href="../../../Applications/MAMP/htdocs/eco/img/logo.jpg"/>
  <g>
    <g>
      <path class="st3" d="M31,2.1C16.4,2.1,4.5,14,4.5,28.6s11.9,26.5,26.5,26.5,26.5-11.9,26.5-26.5S45.7,2.1,31,2.1ZM31,53.6c-13.8,0-25-11.2-25-25S17.3,3.6,31,3.6s25,11.2,25,25-11.2,25-25,25Z"/>
      <path class="st2" d="M31.3,29.3c-.2-.2-.4-.4-.7-.4-.2,0-.5,0-.8.3-2.9,2.4-6.6,3.6-10.4,3.1-3.9-.2-7-2.9-9.1-5.9h0s0,0,0,0c-.2-.3-.6-.4-.8-.2h0s0,0,0,0c-.3.2-.4.6-.2.8h0c.6.9,1.2,1.7,1.9,2.5h0s0,0,0,0c4.8,5.9,14.2,6,20,1.3.3-.2.4-.5.4-.8,0-.3,0-.5-.3-.7Z"/>
      <path class="st1" d="M29.2,19.7c-1,0-1.9.8-1.9,1.9s.8,1.9,1.9,1.9,1.9-.8,1.9-1.9-.8-1.9-1.9-1.9Z"/>
      <path class="st1" d="M13.6,17.8c-1,0-1.9.8-1.9,1.9s.8,1.9,1.9,1.9,1.9-.8,1.9-1.9-.8-1.9-1.9-1.9Z"/>
      <path class="st0" d="M69.7,32.5c-1.8-.8-3.8-1.1-5.8-1.2-2.3-.2-4.6-.1-6.9.1-3.1.3-6.2.9-9.2,1.8.6-2.9,2.2-5.7,3.8-7.9.4-.6,0-1.4-.5-1.7-.6-.4-1.3,0-1.7.5-2.1,2.9-4,6.4-4.3,10-4.1,1.4-8,3.3-11.4,5.8-7.1,5.1-12.3,13-12.8,21.9,0,1.6,2.4,1.6,2.5,0h0c.4-6.8,4-13,8.9-17.6,3.7-3.4,8.1-5.7,12.8-7.4.5,3.6,2.8,6.7,6,8.4,3.7,1.9,8.1,2.2,12.2,1.7,3.5-.5,7.3-1.5,9.3-4.7,2.2-3.4.6-8-3-9.6ZM65.7,43.8c-3.4.9-7.2,1-10.6,0-3.4-.9-6.5-3.3-7.3-7,0-.3-.1-.7-.1-1,1.3-.4,2.6-.7,3.9-1,3.8-.9,7.6-1.4,11.5-1.2,2.9.2,7.5.5,8.1,4.1.6,3.4-2.7,5.3-5.4,6Z"/>
    </g>
    <g>
      <path class="st0" d="M94.3,23.4v3.2h-8.6v5h8v3.1h-8v5.2h8.7v3.2h-12.4v-19.8h12.3Z"/>
      <path class="st0" d="M104.5,43.5c-4.2,0-7.7-2.8-7.7-7.5s3.1-7.4,7.6-7.4,3.3.4,4.6,1.4v3.6c-1.2-1.3-2.8-2-4.5-2-2.7,0-4.3,1.9-4.3,4.5s1.7,4.5,4.4,4.5,3.3-.8,4.4-2v3.6c-1.3.9-3,1.3-4.6,1.3Z"/>
      <path class="st0" d="M125.8,36c0,4.3-2.9,7.4-7.3,7.4s-7.3-3.1-7.3-7.4,2.9-7.4,7.3-7.4,7.3,3.1,7.3,7.4ZM114.6,36c0,2.8,1.5,4.6,3.9,4.6s3.9-1.8,3.9-4.6-1.5-4.6-3.9-4.6-3.9,1.8-3.9,4.6Z"/>
      <path class="st0" d="M134.7,43.2v-19.8h7.4c4.2,0,7,2.5,7,6.2s-2.7,6.4-6.9,6.4h-3.8v7.2h-3.7ZM138.4,26.4v6.4h3.7c2.2,0,3.5-1.3,3.5-3.2s-1.3-3.2-3.5-3.2h-3.7Z"/>
      <path class="st0" d="M164.8,35.2c0,.5,0,1-.2,1.8h-10.2c.3,2.4,2.1,3.9,4.7,3.9s3.7-.7,4.9-1.9v3.2c-1.4.9-3.2,1.3-5.1,1.3-4.7,0-7.8-2.9-7.8-7.4s2.5-7.5,7.2-7.5,6.6,2.7,6.6,6.6ZM158.3,31.2c-2.2,0-3.7,1.5-3.8,3.6h7.2c.2-2-1.2-3.6-3.4-3.6Z"/>
      <path class="st0" d="M167.7,33.2c0-1.3-.1-2.8-.3-4.3h3.4v3.2h.3c.6-2.3,2.2-3.4,4-3.4s1.3.1,2,.5v3.4c-.8-.5-1.5-.8-2.3-.8-2.2,0-3.6,1.7-3.6,4.6v2.4c0,1.6,0,2.9.3,4.3h-3.8v-10Z"/>
      <path class="st0" d="M183.2,35.9h-.3v3c0,1.5,0,3,.3,4.3h-3.8v-14.2c0-2-.1-3.9-.3-5.5h3.8v11.9h.3l5.2-6.4h4l-5.5,6.6,6.7,7.6h-4.2l-6.1-7.3Z"/>
      <path class="st0" d="M199.8,37.3c-3-.3-4.9-1.8-4.9-4.3s2.1-4.4,5.2-4.4,3,.4,4.3,1.3v3.2c-1.2-1.1-2.7-1.7-4.1-1.7s-2.2.6-2.2,1.6.8,1.6,2.5,1.7c3,.2,4.9,1.8,4.9,4.2s-2.2,4.5-5.4,4.5-3.6-.5-5-1.6v-3.3c1.3,1.3,3,2.1,4.8,2.1s2.4-.6,2.4-1.7-.7-1.5-2.4-1.7Z"/>
    </g>
  </g>
</svg>