<svg width="20" height="20" viewBox="0 0 20 20" fill="none" xmlns="http://www.w3.org/2000/svg">
<g clip-path="url(#clip0_388_1128)">
<g clip-path="url(#clip1_388_1128)">
<path d="M10.0079 5.21233H11.5677V3.60449H16.3792L16.4152 3.64053V8.39246L16.3792 8.4285H14.8074V10.0123H16.3792L16.4152 10.0484V11.6081L16.3792 11.6442H14.8074V13.204H16.3552C16.3595 13.204 16.3974 13.241 16.4027 13.2525V14.8118C16.3974 14.8233 16.3595 14.8603 16.3552 14.8603H14.8074V16.4442H13.1755V14.8603H11.5917V16.4442H9.95983V14.8603H8.40004V16.4442H3.55249V11.6567L3.58853 11.6206H5.16033V10.0368H3.55249V3.64053L3.58853 3.60449H9.97233L10.0084 3.64053V5.21233H10.0079ZM7.53606 4.46848H4.44002V7.56451H7.53606V4.46848ZM15.5517 4.46848H12.4317V7.56451H15.5517V4.46848ZM9.95983 5.23636H8.40004V6.79615H9.95983V5.23636ZM11.5682 6.8442H10.0084V8.40399H11.5682V6.8442ZM6.76817 8.4285H5.2204L5.18436 8.46454V9.97628L5.2204 10.0123H6.76817V8.4285ZM9.95983 8.4285H8.40004V10.0123H9.95983V8.4285ZM13.176 8.4285H11.6282L11.5922 8.46454V9.97628L11.6282 10.0123H13.176V8.4285ZM8.35199 10.0363H6.7922V11.5841L6.82824 11.6202H8.35199V10.0363ZM11.5682 10.0363H10.0084V11.6202H11.5682V10.0363ZM14.7598 10.0363H13.2V11.5841L13.2361 11.6202H14.7598V10.0363ZM9.95983 11.6442H8.40004V13.204H9.95983V11.6442ZM13.176 11.6442H11.5922V13.204H13.176V11.6442ZM7.53606 12.4841H4.44002V15.5802H7.53606V12.4841ZM11.5682 13.252H10.0084V14.8118H11.5682V13.252ZM14.7598 13.252H13.2V14.8118H14.7598V13.252Z" fill="#557981" fill-opacity="0.8"/>
<path d="M16.2835 0.772813C16.1687 0.752151 16.0486 0.607993 16.0332 0.495549C15.9967 0.230779 16.1331 0.0837381 16.3859 0.0352049C17.3974 0.0895044 18.5266 -0.0589783 19.5242 0.027997C19.7866 0.0510623 19.9543 0.171674 19.9682 0.447977C19.8889 1.45612 20.0725 2.62428 19.9644 3.61369C19.9293 3.93324 19.6006 4.12016 19.3368 3.89383C19.3272 3.88566 19.2234 3.72325 19.2234 3.71268V0.772813H16.2835Z" fill="#557981" fill-opacity="0.8"/>
<path d="M0.744803 3.6404C0.694348 4.05509 0.128287 4.11708 0.00671387 3.70671L0.018727 0.274789C0.106183 0.112851 0.264757 0.043175 0.443513 0.0277982C1.44205 -0.0586966 2.57032 0.0893056 3.58183 0.0350061C3.86006 0.0609545 4.03064 0.370414 3.88553 0.614041C3.86582 0.646717 3.71782 0.772615 3.68418 0.772615H0.744803V3.6404Z" fill="#557981" fill-opacity="0.8"/>
<path d="M19.2235 16.3358C19.2307 16.3022 19.3768 16.1244 19.4085 16.108C19.6747 15.9682 19.9332 16.1551 19.9644 16.4353C20.0745 17.4223 19.8876 18.5943 19.9683 19.601C19.9572 19.7571 19.889 19.9383 19.7232 19.9796L16.2894 19.9902C15.9554 19.9056 15.9333 19.4251 16.2543 19.2944C16.2726 19.2867 16.3956 19.2516 16.4037 19.2516H19.2235V16.3358Z" fill="#557981" fill-opacity="0.8"/>
<path d="M0.744816 19.2513H3.56455C3.61885 19.2513 3.78607 19.3281 3.83028 19.3695C4.01672 19.5458 3.94368 19.9302 3.67891 19.9893L0.347901 19.9961C0.16386 20.0023 0.0374811 19.8649 0 19.6957L0.00192211 16.3604C0.0932222 16.0884 0.393551 15.951 0.621801 16.1701C0.673698 16.2201 0.744336 16.3373 0.744336 16.4075V19.2513H0.744816Z" fill="#557981" fill-opacity="0.8"/>
<path d="M13.176 6.84409V5.18848H14.7716L14.8076 5.22451V6.80854L14.7716 6.84409H13.176Z" fill="#557981" fill-opacity="0.8"/>
<path d="M5.1604 13.2041H6.75596L6.79199 13.2401V14.8237L6.75596 14.8597H5.19643L5.1604 14.8237V13.2041Z" fill="#557981" fill-opacity="0.8"/>
<path d="M5.1604 6.84409V5.18848H6.75596L6.79199 5.22451V6.80854L6.75596 6.84409H5.1604Z" fill="#557981" fill-opacity="0.8"/>
</g>
</g>
<defs>
<clipPath id="clip0_388_1128">
<rect width="20" height="20" fill="white"/>
</clipPath>
<clipPath id="clip1_388_1128">
<rect width="20" height="19.9966" fill="white"/>
</clipPath>
</defs>
</svg>
