<svg width="17" height="20" viewBox="0 0 17 20" fill="none" xmlns="http://www.w3.org/2000/svg">
<path d="M4.71639 4.04395C5.24718 4.04395 5.67761 3.5373 5.67761 2.91219V1.13141C5.67761 0.506641 5.24718 0 4.71639 0C4.18531 0 3.75488 0.506641 3.75488 1.13141V2.91223C3.75488 3.5373 4.18531 4.04395 4.71639 4.04395Z" fill="#557981" fill-opacity="0.8"/>
<path d="M11.8057 4.04395C12.3365 4.04395 12.7669 3.5373 12.7669 2.91219V1.13141C12.767 0.506641 12.3365 0 11.8057 0C11.2747 0 10.8442 0.506641 10.8442 1.13141V2.91223C10.8442 3.5373 11.2747 4.04395 11.8057 4.04395Z" fill="#557981" fill-opacity="0.8"/>
<path d="M14.2068 1.61328H13.6119V2.9127C13.6119 4.08523 12.8017 5.03895 11.8058 5.03895C10.8097 5.03895 9.99947 4.08523 9.99947 2.9127V1.61328H6.52253V2.9127C6.52253 4.08523 5.71231 5.03895 4.71646 5.03895C3.72033 5.03895 2.91005 4.08523 2.91005 2.9127V1.61328H2.31519C1.03658 1.61328 0 2.83336 0 4.3384V17.2754C0 18.7804 1.03661 20.0005 2.31519 20.0005H14.2068C15.4854 20.0005 16.522 18.7804 16.522 17.2754V4.3384C16.522 2.8334 15.4854 1.61328 14.2068 1.61328ZM14.6999 16.7969C14.6999 17.4932 14.2186 18.0598 13.627 18.0598H2.89495C2.30337 18.0598 1.82207 17.4932 1.82207 16.7969V6.67535H14.7L14.6999 16.7969Z" fill="#557981" fill-opacity="0.8"/>
<path d="M7.79357 14.5215H6.09473V16.5212H7.79357V14.5215Z" fill="#557981" fill-opacity="0.8"/>
<path d="M7.79357 11.4219H6.09473V13.4215H7.79357V11.4219Z" fill="#557981" fill-opacity="0.8"/>
<path d="M5.16073 14.5215H3.46191V16.5212H5.16073V14.5215Z" fill="#557981" fill-opacity="0.8"/>
<path d="M5.16073 11.4219H3.46191V13.4215H5.16073V11.4219Z" fill="#557981" fill-opacity="0.8"/>
<path d="M13.0601 8.32227H11.3613V10.3219H13.0601V8.32227Z" fill="#557981" fill-opacity="0.8"/>
<path d="M10.4276 8.32227H8.72852V10.3219H10.4276V8.32227Z" fill="#557981" fill-opacity="0.8"/>
<path d="M10.4276 11.4219H8.72852V13.4215H10.4276V11.4219Z" fill="#557981" fill-opacity="0.8"/>
<path d="M13.0601 14.5215H11.3613V16.5212H13.0601V14.5215Z" fill="#557981" fill-opacity="0.8"/>
<path d="M13.0601 11.4219H11.3613V13.4215H13.0601V11.4219Z" fill="#557981" fill-opacity="0.8"/>
<path d="M10.4276 14.5215H8.72852V16.5212H10.4276V14.5215Z" fill="#557981" fill-opacity="0.8"/>
<path d="M7.79357 8.32227H6.09473V10.3219H7.79357V8.32227Z" fill="#557981" fill-opacity="0.8"/>
<path d="M5.16073 8.32227H3.46191V10.3219H5.16073V8.32227Z" fill="#557981" fill-opacity="0.8"/>
</svg>
