<svg width="20" height="20" viewBox="0 0 20 20" fill="none" xmlns="http://www.w3.org/2000/svg">
<g opacity="0.8" clip-path="url(#clip0_152_2301)">
<path d="M8.66993 13.1336C11.007 13.1336 12.9012 11.2394 12.9012 8.90275C12.9012 6.56612 11.007 4.67188 8.66993 4.67188C6.33289 4.67188 4.43945 6.56653 4.43945 8.90275C4.43945 11.239 6.3333 13.1336 8.66993 13.1336Z" fill="#537478" fill-opacity="0.8"/>
<path d="M16.093 18.6966C15.1966 15.9406 11.9062 14.4395 8.67023 14.4395C5.43431 14.4395 2.14349 15.9406 1.24702 18.6966C1.10293 19.1381 1.02462 19.5769 1 20.0047H16.3401C16.315 19.5769 16.2367 19.1381 16.0926 18.6966H16.093Z" fill="#537478" fill-opacity="0.8"/>
<path d="M19.6974 2.99617H17.004V0.302725C17.004 0.135621 16.8683 0 16.7012 0C16.5341 0 16.3985 0.135621 16.3985 0.302725V2.99617H13.7051C13.538 2.99617 13.4023 3.13179 13.4023 3.29889C13.4023 3.46599 13.538 3.60161 13.7051 3.60161H16.3985V6.29506C16.3985 6.46216 16.5341 6.59778 16.7012 6.59778C16.8683 6.59778 17.004 6.46216 17.004 6.29506V3.60161H19.6974C19.8645 3.60161 20.0001 3.46599 20.0001 3.29889C20.0001 3.13179 19.8645 2.99617 19.6974 2.99617Z" fill="#537478"/>
</g>
<defs>
<clipPath id="clip0_152_2301">
<rect width="20" height="20.0048" fill="white"/>
</clipPath>
</defs>
</svg>
